<?xml version="1.0" encoding="utf-8"?>
<!-- Generator: Adobe Illustrator 16.0.3, SVG Export Plug-In . SVG Version: 6.00 Build 0)  -->
<!DOCTYPE svg PUBLIC "-//W3C//DTD SVG 1.1//EN" "http://www.w3.org/Graphics/SVG/1.1/DTD/svg11.dtd">
<svg version="1.1" id="Layer_1" xmlns="http://www.w3.org/2000/svg" xmlns:xlink="http://www.w3.org/1999/xlink" x="0px" y="0px"
	 width="1350.915px" height="273.02px" viewBox="0 0 1350.915 273.02" enable-background="new 0 0 1350.915 273.02"
	 xml:space="preserve">
<rect fill="#FFFFFF" width="1350.915" height="273.013"/>
<path fill="#5EBEDB" d="M1344.234,112.428c0,0.355,0,0.713,0,1.068C1124.658-5.888,905.053,65.383,685.485,141.138
	C797.109,84.441,908.727,30.348,1020.347,12.4C1128.317,13.869,1236.276,36.741,1344.234,112.428z"/>
<path fill="#62C0DD" d="M1021.807,22.549c-170.294,13.189-340.6,140.749-510.902,192.188C340.606,278.101,170.299,265.331,0,273.02
	c0-43.791,0-87.585,0-131.374C332.95,302.701,665.894,50.902,998.835,22.491C1006.502,22.428,1014.153,22.439,1021.807,22.549z"/>
<path fill="#9A66DD" d="M1350.915,0c0,14.518,0,29.041,0,43.558c-225.15-54.97-450.308-20.837-675.459,75.204
	C450.3,212.511,225.15,280.678,0,195.575C0,130.388,0,65.189,0,0C450.3,0,900.607,0,1350.915,0z"/>
<path fill="#9D79E2" d="M1350.915,0c0,38.697,0,77.384,0,116.082C1172.104-4.216,993.317,22.62,814.527,33.462
	C635.729,49.66,456.929,49.865,278.137,0C635.729,0,993.317,0,1350.915,0z"/>
</svg>
